SplineFontDB: 3.2
FontName: Kirby's-Adventure
FullName: Kirby's Adventure Regular
FamilyName: Kirby's Adventure
Weight: Book
Copyright: Copyright David Fens 2013
Version: 1.0
ItalicAngle: 0
UnderlinePosition: 77
UnderlineWidth: 51
Ascent: 896
Descent: 128
InvalidEm: 0
sfntRevision: 0x00010000
LayerCount: 2
Layer: 0 1 "Back" 1
Layer: 1 1 "Fore" 0
XUID: [1021 180 1126196527 8721146]
StyleMap: 0x0040
FSType: 4
OS2Version: 2
OS2_WeightWidthSlopeOnly: 0
OS2_UseTypoMetrics: 0
CreationTime: 1379757269
ModificationTime: 1667324284
PfmFamily: 81
TTFWeight: 400
TTFWidth: 5
LineGap: 0
VLineGap: 0
Panose: 0 0 4 0 0 0 0 0 0 0
OS2TypoAscent: 896
OS2TypoAOffset: 0
OS2TypoDescent: -128
OS2TypoDOffset: 0
OS2TypoLinegap: 0
OS2WinAscent: 1024
OS2WinAOffset: 0
OS2WinDescent: 128
OS2WinDOffset: 0
HheadAscent: 1024
HheadAOffset: 0
HheadDescent: -128
HheadDOffset: 0
OS2SubXSize: 512
OS2SubYSize: 512
OS2SubXOff: 0
OS2SubYOff: -64
OS2SupXSize: 512
OS2SupYSize: 512
OS2SupXOff: 0
OS2SupYOff: 512
OS2StrikeYSize: 51
OS2StrikeYPos: 204
OS2CapHeight: 896
OS2XHeight: 640
OS2Vendor: 'FSTR'
OS2CodePages: 00000001.00000000
OS2UnicodeRanges: 80000003.00000000.00000000.00000000
DEI: 91125
ShortTable: maxp 16
  1
  0
  89
  40
  8
  0
  0
  2
  0
  0
  0
  0
  0
  0
  0
  0
EndShort
LangName: 1033 "" "" "Regular" "FontStruct Kirby's Adventure" "" "Version 1.0" "" "FontStruct is a trademark of FSI FontShop International GmbH" "http://fontstruct.com" "David Fens" "+IBoAxAD6-Kirby's Adventure+IBoAxAD5 was built with FontStruct+AAoA" "http://www.fontshop.com" "http://fontstruct.com/fontstructions/show/876020" "FontStruct Non-Commercial License" "" "" "" "" "" "Five big quacking zephyrs jolt my wax bed"
Encoding: UnicodeBmp
UnicodeInterp: none
NameList: AGL For New Fonts
DisplaySize: -48
AntiAlias: 1
FitToEm: 0
WinInfo: 0 16 4
BeginChars: 65539 90

StartChar: .notdef
Encoding: 65536 -1 0
Width: 640
GlyphClass: 1
Flags: W
LayerCount: 2
Fore
SplineSet
448 127 m 1,0,-1
 448 269 l 1,1,-1
 305 269 l 1,2,-1
 305 127 l 1,3,-1
 448 127 l 1,0,-1
590 293 m 1,4,-1
 590 436 l 1,5,-1
 305 436 l 1,6,-1
 305 293 l 1,7,-1
 590 293 l 1,4,-1
448 459 m 1,8,-1
 448 602 l 1,9,-1
 305 602 l 1,10,-1
 305 459 l 1,11,-1
 448 459 l 1,8,-1
590 626 m 1,12,-1
 590 767 l 1,13,-1
 448 767 l 2,14,15
 388 767 388 767 347 726 c 0,16,17
 305 684 305 684 305 626 c 1,18,-1
 590 626 l 1,12,-1
0 0 m 1,19,-1
 0 896 l 1,20,-1
 896 896 l 1,21,-1
 896 0 l 1,22,-1
 0 0 l 1,19,-1
EndSplineSet
EndChar

StartChar: exclam
Encoding: 33 33 4
Width: 512
GlyphClass: 1
Flags: W
LayerCount: 2
Fore
SplineSet
0 0 m 1,0,-1
 0 256 l 1,1,-1
 256 256 l 1,2,-1
 256 0 l 1,3,-1
 0 0 l 1,0,-1
128 384 m 1,4,-1
 128 896 l 1,5,-1
 384 896 l 1,6,-1
 384 512 l 1,7,-1
 256 512 l 1,8,-1
 256 384 l 1,9,-1
 128 384 l 1,4,-1
EndSplineSet
EndChar

StartChar: quotedbl
Encoding: 34 34 5
Width: 512
GlyphClass: 1
Flags: W
LayerCount: 2
Fore
SplineSet
0 640 m 1,0,-1
 0 896 l 1,1,-1
 128 896 l 1,2,-1
 128 640 l 1,3,-1
 0 640 l 1,0,-1
256 640 m 1,4,-1
 256 896 l 1,5,-1
 384 896 l 1,6,-1
 384 640 l 1,7,-1
 256 640 l 1,4,-1
EndSplineSet
EndChar

StartChar: percent
Encoding: 37 37 6
Width: 1152
GlyphClass: 1
Flags: W
LayerCount: 2
Fore
SplineSet
896 128 m 1,0,-1
 896 256 l 1,1,-1
 768 256 l 1,2,-1
 768 128 l 1,3,-1
 896 128 l 1,0,-1
640 0 m 1,4,-1
 640 384 l 1,5,-1
 1024 384 l 1,6,-1
 1024 0 l 1,7,-1
 640 0 l 1,4,-1
256 640 m 1,8,-1
 256 768 l 1,9,-1
 128 768 l 1,10,-1
 128 640 l 1,11,-1
 256 640 l 1,8,-1
0 512 m 1,12,-1
 0 896 l 1,13,-1
 384 896 l 1,14,-1
 384 512 l 1,15,-1
 0 512 l 1,12,-1
128 0 m 1,16,-1
 128 256 l 1,17,-1
 256 256 l 1,18,-1
 256 384 l 1,19,-1
 384 384 l 1,20,-1
 384 512 l 1,21,-1
 512 512 l 1,22,-1
 512 640 l 1,23,-1
 640 640 l 1,24,-1
 640 768 l 1,25,-1
 768 768 l 1,26,-1
 768 896 l 1,27,-1
 896 896 l 1,28,-1
 896 640 l 1,29,-1
 768 640 l 1,30,-1
 768 512 l 1,31,-1
 640 512 l 1,32,-1
 640 384 l 1,33,-1
 512 384 l 1,34,-1
 512 256 l 1,35,-1
 384 256 l 1,36,-1
 384 128 l 1,37,-1
 256 128 l 1,38,-1
 256 0 l 1,39,-1
 128 0 l 1,16,-1
EndSplineSet
EndChar

StartChar: quotesingle
Encoding: 39 39 7
Width: 256
GlyphClass: 1
Flags: W
LayerCount: 2
Fore
SplineSet
0 640 m 1,0,-1
 0 896 l 1,1,-1
 128 896 l 1,2,-1
 128 640 l 1,3,-1
 0 640 l 1,0,-1
EndSplineSet
EndChar

StartChar: comma
Encoding: 44 44 8
Width: 384
GlyphClass: 1
Flags: W
LayerCount: 2
Fore
SplineSet
0 -128 m 1,0,-1
 0 0 l 1,1,-1
 128 0 l 1,2,-1
 128 -128 l 1,3,-1
 0 -128 l 1,0,-1
128 0 m 1,4,-1
 128 128 l 1,5,-1
 0 128 l 1,6,-1
 0 256 l 1,7,-1
 256 256 l 1,8,-1
 256 0 l 1,9,-1
 128 0 l 1,4,-1
EndSplineSet
EndChar

StartChar: hyphen
Encoding: 45 45 9
Width: 640
GlyphClass: 1
Flags: W
LayerCount: 2
Fore
SplineSet
0 256 m 1,0,-1
 0 384 l 1,1,-1
 512 384 l 1,2,-1
 512 256 l 1,3,-1
 0 256 l 1,0,-1
EndSplineSet
EndChar

StartChar: period
Encoding: 46 46 10
Width: 384
GlyphClass: 1
Flags: W
LayerCount: 2
Fore
SplineSet
0 0 m 1,0,-1
 0 256 l 1,1,-1
 256 256 l 1,2,-1
 256 0 l 1,3,-1
 0 0 l 1,0,-1
EndSplineSet
EndChar

StartChar: zero
Encoding: 48 48 11
Width: 1024
GlyphClass: 1
Flags: W
LayerCount: 2
Fore
SplineSet
256 0 m 1,0,-1
 256 128 l 1,1,-1
 128 128 l 1,2,-1
 128 256 l 1,3,-1
 0 256 l 1,4,-1
 0 768 l 1,5,-1
 128 768 l 1,6,-1
 128 896 l 1,7,-1
 256 896 l 1,8,-1
 256 256 l 1,9,-1
 384 256 l 1,10,-1
 384 128 l 1,11,-1
 640 128 l 1,12,-1
 640 0 l 1,13,-1
 256 0 l 1,0,-1
640 128 m 1,14,-1
 640 768 l 1,15,-1
 512 768 l 1,16,-1
 512 896 l 1,17,-1
 256 896 l 1,18,-1
 256 1024 l 1,19,-1
 640 1024 l 1,20,-1
 640 896 l 1,21,-1
 768 896 l 1,22,-1
 768 768 l 1,23,-1
 896 768 l 1,24,-1
 896 256 l 1,25,-1
 768 256 l 1,26,-1
 768 128 l 1,27,-1
 640 128 l 1,14,-1
EndSplineSet
EndChar

StartChar: one
Encoding: 49 49 12
Width: 640
GlyphClass: 1
Flags: W
LayerCount: 2
Fore
SplineSet
0 0 m 1,0,-1
 0 128 l 1,1,-1
 128 128 l 1,2,-1
 128 768 l 1,3,-1
 0 768 l 1,4,-1
 0 896 l 1,5,-1
 128 896 l 1,6,-1
 128 1024 l 1,7,-1
 384 1024 l 1,8,-1
 384 128 l 1,9,-1
 512 128 l 1,10,-1
 512 0 l 1,11,-1
 0 0 l 1,0,-1
EndSplineSet
EndChar

StartChar: two
Encoding: 50 50 13
Width: 1024
GlyphClass: 1
Flags: W
LayerCount: 2
Fore
SplineSet
0 0 m 1,0,-1
 0 256 l 1,1,-1
 128 256 l 1,2,-1
 128 384 l 1,3,-1
 256 384 l 1,4,-1
 256 512 l 1,5,-1
 512 512 l 1,6,-1
 512 640 l 1,7,-1
 640 640 l 1,8,-1
 640 896 l 1,9,-1
 256 896 l 1,10,-1
 256 640 l 1,11,-1
 0 640 l 1,12,-1
 0 896 l 1,13,-1
 128 896 l 1,14,-1
 128 1024 l 1,15,-1
 768 1024 l 1,16,-1
 768 896 l 1,17,-1
 896 896 l 1,18,-1
 896 512 l 1,19,-1
 768 512 l 1,20,-1
 768 384 l 1,21,-1
 384 384 l 1,22,-1
 384 256 l 1,23,-1
 256 256 l 1,24,-1
 256 128 l 1,25,-1
 768 128 l 1,26,-1
 768 256 l 1,27,-1
 896 256 l 1,28,-1
 896 0 l 1,29,-1
 0 0 l 1,0,-1
EndSplineSet
EndChar

StartChar: three
Encoding: 51 51 14
Width: 1024
GlyphClass: 1
Flags: W
LayerCount: 2
Fore
SplineSet
128 0 m 1,0,-1
 128 128 l 1,1,-1
 0 128 l 1,2,-1
 0 384 l 1,3,-1
 256 384 l 1,4,-1
 256 128 l 1,5,-1
 640 128 l 1,6,-1
 640 384 l 1,7,-1
 384 384 l 1,8,-1
 384 640 l 1,9,-1
 640 640 l 1,10,-1
 640 896 l 1,11,-1
 256 896 l 1,12,-1
 256 640 l 1,13,-1
 0 640 l 1,14,-1
 0 896 l 1,15,-1
 128 896 l 1,16,-1
 128 1024 l 1,17,-1
 768 1024 l 1,18,-1
 768 896 l 1,19,-1
 896 896 l 1,20,-1
 896 640 l 1,21,-1
 768 640 l 1,22,-1
 768 512 l 1,23,-1
 896 512 l 1,24,-1
 896 128 l 1,25,-1
 768 128 l 1,26,-1
 768 0 l 1,27,-1
 128 0 l 1,0,-1
EndSplineSet
EndChar

StartChar: four
Encoding: 52 52 15
Width: 1024
GlyphClass: 1
Flags: W
LayerCount: 2
Fore
SplineSet
128 512 m 1,0,-1
 128 640 l 1,1,-1
 256 640 l 1,2,-1
 256 512 l 1,3,-1
 128 512 l 1,0,-1
256 640 m 1,4,-1
 256 768 l 1,5,-1
 384 768 l 1,6,-1
 384 640 l 1,7,-1
 256 640 l 1,4,-1
384 0 m 1,8,-1
 384 128 l 1,9,-1
 512 128 l 1,10,-1
 512 256 l 1,11,-1
 0 256 l 1,12,-1
 0 512 l 1,13,-1
 128 512 l 1,14,-1
 128 384 l 1,15,-1
 512 384 l 1,16,-1
 512 768 l 1,17,-1
 384 768 l 1,18,-1
 384 896 l 1,19,-1
 512 896 l 1,20,-1
 512 1024 l 1,21,-1
 768 1024 l 1,22,-1
 768 384 l 1,23,-1
 896 384 l 1,24,-1
 896 256 l 1,25,-1
 768 256 l 1,26,-1
 768 128 l 1,27,-1
 896 128 l 1,28,-1
 896 0 l 1,29,-1
 384 0 l 1,8,-1
EndSplineSet
EndChar

StartChar: five
Encoding: 53 53 16
Width: 1024
GlyphClass: 1
Flags: W
LayerCount: 2
Fore
SplineSet
128 0 m 1,0,-1
 128 128 l 1,1,-1
 0 128 l 1,2,-1
 0 384 l 1,3,-1
 256 384 l 1,4,-1
 256 128 l 1,5,-1
 640 128 l 1,6,-1
 640 512 l 1,7,-1
 128 512 l 1,8,-1
 128 1024 l 1,9,-1
 896 1024 l 1,10,-1
 896 896 l 1,11,-1
 384 896 l 1,12,-1
 384 640 l 1,13,-1
 768 640 l 1,14,-1
 768 512 l 1,15,-1
 896 512 l 1,16,-1
 896 128 l 1,17,-1
 768 128 l 1,18,-1
 768 0 l 1,19,-1
 128 0 l 1,0,-1
EndSplineSet
EndChar

StartChar: six
Encoding: 54 54 17
Width: 1024
GlyphClass: 1
Flags: W
LayerCount: 2
Fore
SplineSet
640 128 m 1,0,-1
 640 512 l 1,1,-1
 256 512 l 1,2,-1
 256 128 l 1,3,-1
 640 128 l 1,0,-1
128 0 m 1,4,-1
 128 128 l 1,5,-1
 0 128 l 1,6,-1
 0 768 l 1,7,-1
 128 768 l 1,8,-1
 128 896 l 1,9,-1
 256 896 l 1,10,-1
 256 1024 l 1,11,-1
 768 1024 l 1,12,-1
 768 896 l 1,13,-1
 384 896 l 1,14,-1
 384 768 l 1,15,-1
 256 768 l 1,16,-1
 256 640 l 1,17,-1
 768 640 l 1,18,-1
 768 512 l 1,19,-1
 896 512 l 1,20,-1
 896 128 l 1,21,-1
 768 128 l 1,22,-1
 768 0 l 1,23,-1
 128 0 l 1,4,-1
EndSplineSet
EndChar

StartChar: seven
Encoding: 55 55 18
Width: 1024
GlyphClass: 1
Flags: W
LayerCount: 2
Fore
SplineSet
256 0 m 1,0,-1
 256 256 l 1,1,-1
 384 256 l 1,2,-1
 384 512 l 1,3,-1
 512 512 l 1,4,-1
 512 640 l 1,5,-1
 640 640 l 1,6,-1
 640 896 l 1,7,-1
 256 896 l 1,8,-1
 256 768 l 1,9,-1
 128 768 l 1,10,-1
 128 640 l 1,11,-1
 0 640 l 1,12,-1
 0 896 l 1,13,-1
 128 896 l 1,14,-1
 128 1024 l 1,15,-1
 896 1024 l 1,16,-1
 896 768 l 1,17,-1
 768 768 l 1,18,-1
 768 512 l 1,19,-1
 640 512 l 1,20,-1
 640 256 l 1,21,-1
 512 256 l 1,22,-1
 512 0 l 1,23,-1
 256 0 l 1,0,-1
EndSplineSet
EndChar

StartChar: eight
Encoding: 56 56 19
Width: 1024
GlyphClass: 1
Flags: W
LayerCount: 2
Fore
SplineSet
640 128 m 1,0,-1
 640 512 l 1,1,-1
 256 512 l 1,2,-1
 256 128 l 1,3,-1
 640 128 l 1,0,-1
640 640 m 1,4,-1
 640 896 l 1,5,-1
 256 896 l 1,6,-1
 256 640 l 1,7,-1
 640 640 l 1,4,-1
128 0 m 1,8,-1
 128 128 l 1,9,-1
 0 128 l 1,10,-1
 0 512 l 1,11,-1
 128 512 l 1,12,-1
 128 640 l 1,13,-1
 0 640 l 1,14,-1
 0 896 l 1,15,-1
 128 896 l 1,16,-1
 128 1024 l 1,17,-1
 768 1024 l 1,18,-1
 768 896 l 1,19,-1
 896 896 l 1,20,-1
 896 640 l 1,21,-1
 768 640 l 1,22,-1
 768 512 l 1,23,-1
 896 512 l 1,24,-1
 896 128 l 1,25,-1
 768 128 l 1,26,-1
 768 0 l 1,27,-1
 128 0 l 1,8,-1
EndSplineSet
EndChar

StartChar: nine
Encoding: 57 57 20
Width: 1024
GlyphClass: 1
Flags: W
LayerCount: 2
Fore
SplineSet
640 512 m 1,0,-1
 640 896 l 1,1,-1
 256 896 l 1,2,-1
 256 512 l 1,3,-1
 640 512 l 1,0,-1
128 0 m 1,4,-1
 128 128 l 1,5,-1
 512 128 l 1,6,-1
 512 256 l 1,7,-1
 640 256 l 1,8,-1
 640 384 l 1,9,-1
 128 384 l 1,10,-1
 128 512 l 1,11,-1
 0 512 l 1,12,-1
 0 896 l 1,13,-1
 128 896 l 1,14,-1
 128 1024 l 1,15,-1
 768 1024 l 1,16,-1
 768 896 l 1,17,-1
 896 896 l 1,18,-1
 896 256 l 1,19,-1
 768 256 l 1,20,-1
 768 128 l 1,21,-1
 640 128 l 1,22,-1
 640 0 l 1,23,-1
 128 0 l 1,4,-1
EndSplineSet
EndChar

StartChar: question
Encoding: 63 63 21
Width: 768
GlyphClass: 1
Flags: W
LayerCount: 2
Fore
SplineSet
256 0 m 1,0,-1
 256 128 l 1,1,-1
 384 128 l 1,2,-1
 384 0 l 1,3,-1
 256 0 l 1,0,-1
256 256 m 1,4,-1
 256 512 l 1,5,-1
 512 512 l 1,6,-1
 512 384 l 1,7,-1
 384 384 l 1,8,-1
 384 256 l 1,9,-1
 256 256 l 1,4,-1
0 640 m 1,10,-1
 0 896 l 1,11,-1
 128 896 l 1,12,-1
 128 640 l 1,13,-1
 0 640 l 1,10,-1
512 512 m 1,14,-1
 512 896 l 1,15,-1
 640 896 l 1,16,-1
 640 512 l 1,17,-1
 512 512 l 1,14,-1
128 896 m 1,18,-1
 128 1024 l 1,19,-1
 512 1024 l 1,20,-1
 512 896 l 1,21,-1
 128 896 l 1,18,-1
EndSplineSet
EndChar

StartChar: A
Encoding: 65 65 22
Width: 768
GlyphClass: 1
Flags: W
LayerCount: 2
Fore
SplineSet
0 0 m 1,0,-1
 0 384 l 1,1,-1
 128 384 l 1,2,-1
 128 0 l 1,3,-1
 0 0 l 1,0,-1
512 0 m 1,4,-1
 512 384 l 1,5,-1
 128 384 l 1,6,-1
 128 768 l 1,7,-1
 256 768 l 1,8,-1
 256 512 l 1,9,-1
 512 512 l 1,10,-1
 512 768 l 1,11,-1
 640 768 l 1,12,-1
 640 0 l 1,13,-1
 512 0 l 1,4,-1
256 768 m 1,14,-1
 256 896 l 1,15,-1
 512 896 l 1,16,-1
 512 768 l 1,17,-1
 256 768 l 1,14,-1
EndSplineSet
EndChar

StartChar: B
Encoding: 66 66 23
Width: 768
GlyphClass: 1
Flags: W
LayerCount: 2
Fore
SplineSet
0 0 m 1,0,-1
 0 384 l 1,1,-1
 128 384 l 1,2,-1
 128 128 l 1,3,-1
 512 128 l 1,4,-1
 512 0 l 1,5,-1
 0 0 l 1,0,-1
512 128 m 1,6,-1
 512 384 l 1,7,-1
 640 384 l 1,8,-1
 640 128 l 1,9,-1
 512 128 l 1,6,-1
512 512 m 1,10,-1
 512 768 l 1,11,-1
 640 768 l 1,12,-1
 640 512 l 1,13,-1
 512 512 l 1,10,-1
128 384 m 1,14,-1
 128 896 l 1,15,-1
 512 896 l 1,16,-1
 512 768 l 1,17,-1
 256 768 l 1,18,-1
 256 512 l 1,19,-1
 512 512 l 1,20,-1
 512 384 l 1,21,-1
 128 384 l 1,14,-1
EndSplineSet
EndChar

StartChar: C
Encoding: 67 67 24
Width: 768
GlyphClass: 1
Flags: W
LayerCount: 2
Fore
SplineSet
128 0 m 1,0,-1
 128 128 l 1,1,-1
 512 128 l 1,2,-1
 512 0 l 1,3,-1
 128 0 l 1,0,-1
512 128 m 1,4,-1
 512 256 l 1,5,-1
 640 256 l 1,6,-1
 640 128 l 1,7,-1
 512 128 l 1,4,-1
0 128 m 1,8,-1
 0 512 l 1,9,-1
 128 512 l 1,10,-1
 128 128 l 1,11,-1
 0 128 l 1,8,-1
128 512 m 1,12,-1
 128 768 l 1,13,-1
 256 768 l 1,14,-1
 256 512 l 1,15,-1
 128 512 l 1,12,-1
512 640 m 1,16,-1
 512 768 l 1,17,-1
 640 768 l 1,18,-1
 640 640 l 1,19,-1
 512 640 l 1,16,-1
256 768 m 1,20,-1
 256 896 l 1,21,-1
 512 896 l 1,22,-1
 512 768 l 1,23,-1
 256 768 l 1,20,-1
EndSplineSet
EndChar

StartChar: D
Encoding: 68 68 25
Width: 768
GlyphClass: 1
Flags: W
LayerCount: 2
Fore
SplineSet
0 0 m 1,0,-1
 0 384 l 1,1,-1
 128 384 l 1,2,-1
 128 128 l 1,3,-1
 512 128 l 1,4,-1
 512 0 l 1,5,-1
 0 0 l 1,0,-1
512 128 m 1,6,-1
 512 640 l 1,7,-1
 640 640 l 1,8,-1
 640 128 l 1,9,-1
 512 128 l 1,6,-1
384 640 m 1,10,-1
 384 768 l 1,11,-1
 512 768 l 1,12,-1
 512 640 l 1,13,-1
 384 640 l 1,10,-1
128 384 m 1,14,-1
 128 768 l 1,15,-1
 0 768 l 1,16,-1
 0 896 l 1,17,-1
 384 896 l 1,18,-1
 384 768 l 1,19,-1
 256 768 l 1,20,-1
 256 384 l 1,21,-1
 128 384 l 1,14,-1
EndSplineSet
EndChar

StartChar: E
Encoding: 69 69 26
Width: 768
GlyphClass: 1
Flags: W
LayerCount: 2
Fore
SplineSet
0 0 m 1,0,-1
 0 384 l 1,1,-1
 128 384 l 1,2,-1
 128 128 l 1,3,-1
 512 128 l 1,4,-1
 512 0 l 1,5,-1
 0 0 l 1,0,-1
128 384 m 1,6,-1
 128 896 l 1,7,-1
 640 896 l 1,8,-1
 640 768 l 1,9,-1
 256 768 l 1,10,-1
 256 512 l 1,11,-1
 512 512 l 1,12,-1
 512 384 l 1,13,-1
 128 384 l 1,6,-1
EndSplineSet
EndChar

StartChar: F
Encoding: 70 70 27
Width: 768
GlyphClass: 1
Flags: W
LayerCount: 2
Fore
SplineSet
0 0 m 1,0,-1
 0 384 l 1,1,-1
 128 384 l 1,2,-1
 128 0 l 1,3,-1
 0 0 l 1,0,-1
128 384 m 1,4,-1
 128 896 l 1,5,-1
 640 896 l 1,6,-1
 640 768 l 1,7,-1
 256 768 l 1,8,-1
 256 512 l 1,9,-1
 512 512 l 1,10,-1
 512 384 l 1,11,-1
 128 384 l 1,4,-1
EndSplineSet
EndChar

StartChar: G
Encoding: 71 71 28
Width: 768
GlyphClass: 1
Flags: W
LayerCount: 2
Fore
SplineSet
0 128 m 1,0,-1
 0 512 l 1,1,-1
 128 512 l 1,2,-1
 128 128 l 1,3,-1
 0 128 l 1,0,-1
128 0 m 1,4,-1
 128 128 l 1,5,-1
 512 128 l 1,6,-1
 512 384 l 1,7,-1
 384 384 l 1,8,-1
 384 512 l 1,9,-1
 640 512 l 1,10,-1
 640 0 l 1,11,-1
 128 0 l 1,4,-1
128 512 m 1,12,-1
 128 768 l 1,13,-1
 256 768 l 1,14,-1
 256 512 l 1,15,-1
 128 512 l 1,12,-1
512 640 m 1,16,-1
 512 768 l 1,17,-1
 640 768 l 1,18,-1
 640 640 l 1,19,-1
 512 640 l 1,16,-1
256 768 m 1,20,-1
 256 896 l 1,21,-1
 512 896 l 1,22,-1
 512 768 l 1,23,-1
 256 768 l 1,20,-1
EndSplineSet
EndChar

StartChar: H
Encoding: 72 72 29
Width: 768
GlyphClass: 1
Flags: W
LayerCount: 2
Fore
SplineSet
0 0 m 1,0,-1
 0 384 l 1,1,-1
 128 384 l 1,2,-1
 128 0 l 1,3,-1
 0 0 l 1,0,-1
512 0 m 1,4,-1
 512 384 l 1,5,-1
 128 384 l 1,6,-1
 128 896 l 1,7,-1
 256 896 l 1,8,-1
 256 512 l 1,9,-1
 512 512 l 1,10,-1
 512 896 l 1,11,-1
 640 896 l 1,12,-1
 640 0 l 1,13,-1
 512 0 l 1,4,-1
EndSplineSet
EndChar

StartChar: I
Encoding: 73 73 30
Width: 640
GlyphClass: 1
Flags: W
LayerCount: 2
Fore
SplineSet
0 0 m 1,0,-1
 0 128 l 1,1,-1
 128 128 l 1,2,-1
 128 512 l 1,3,-1
 256 512 l 1,4,-1
 256 128 l 1,5,-1
 384 128 l 1,6,-1
 384 0 l 1,7,-1
 0 0 l 1,0,-1
256 512 m 1,8,-1
 256 768 l 1,9,-1
 128 768 l 1,10,-1
 128 896 l 1,11,-1
 512 896 l 1,12,-1
 512 768 l 1,13,-1
 384 768 l 1,14,-1
 384 512 l 1,15,-1
 256 512 l 1,8,-1
EndSplineSet
EndChar

StartChar: J
Encoding: 74 74 31
Width: 768
GlyphClass: 1
Flags: W
LayerCount: 2
Fore
SplineSet
128 0 m 1,0,-1
 128 128 l 1,1,-1
 384 128 l 1,2,-1
 384 0 l 1,3,-1
 128 0 l 1,0,-1
0 128 m 1,4,-1
 0 256 l 1,5,-1
 128 256 l 1,6,-1
 128 128 l 1,7,-1
 0 128 l 1,4,-1
384 128 m 1,8,-1
 384 512 l 1,9,-1
 512 512 l 1,10,-1
 512 128 l 1,11,-1
 384 128 l 1,8,-1
512 512 m 1,12,-1
 512 768 l 1,13,-1
 256 768 l 1,14,-1
 256 896 l 1,15,-1
 640 896 l 1,16,-1
 640 512 l 1,17,-1
 512 512 l 1,12,-1
EndSplineSet
EndChar

StartChar: K
Encoding: 75 75 32
Width: 768
GlyphClass: 1
Flags: W
LayerCount: 2
Fore
SplineSet
0 0 m 1,0,-1
 0 384 l 1,1,-1
 128 384 l 1,2,-1
 128 0 l 1,3,-1
 0 0 l 1,0,-1
512 0 m 1,4,-1
 512 384 l 1,5,-1
 640 384 l 1,6,-1
 640 0 l 1,7,-1
 512 0 l 1,4,-1
384 384 m 1,8,-1
 384 512 l 1,9,-1
 512 512 l 1,10,-1
 512 384 l 1,11,-1
 384 384 l 1,8,-1
384 640 m 1,12,-1
 384 768 l 1,13,-1
 512 768 l 1,14,-1
 512 640 l 1,15,-1
 384 640 l 1,12,-1
128 384 m 1,16,-1
 128 896 l 1,17,-1
 256 896 l 1,18,-1
 256 640 l 1,19,-1
 384 640 l 1,20,-1
 384 512 l 1,21,-1
 256 512 l 1,22,-1
 256 384 l 1,23,-1
 128 384 l 1,16,-1
512 768 m 1,24,-1
 512 896 l 1,25,-1
 640 896 l 1,26,-1
 640 768 l 1,27,-1
 512 768 l 1,24,-1
EndSplineSet
EndChar

StartChar: L
Encoding: 76 76 33
Width: 768
GlyphClass: 1
Flags: W
LayerCount: 2
Fore
SplineSet
0 0 m 1,0,-1
 0 512 l 1,1,-1
 128 512 l 1,2,-1
 128 128 l 1,3,-1
 640 128 l 1,4,-1
 640 0 l 1,5,-1
 0 0 l 1,0,-1
128 512 m 1,6,-1
 128 896 l 1,7,-1
 256 896 l 1,8,-1
 256 512 l 1,9,-1
 128 512 l 1,6,-1
EndSplineSet
EndChar

StartChar: M
Encoding: 77 77 34
Width: 896
GlyphClass: 1
Flags: W
LayerCount: 2
Fore
SplineSet
256 0 m 1,0,-1
 256 256 l 1,1,-1
 384 256 l 1,2,-1
 384 0 l 1,3,-1
 256 0 l 1,0,-1
0 0 m 1,4,-1
 0 384 l 1,5,-1
 128 384 l 1,6,-1
 128 0 l 1,7,-1
 0 0 l 1,4,-1
384 256 m 1,8,-1
 384 640 l 1,9,-1
 512 640 l 1,10,-1
 512 256 l 1,11,-1
 384 256 l 1,8,-1
128 384 m 1,12,-1
 128 896 l 1,13,-1
 256 896 l 1,14,-1
 256 768 l 1,15,-1
 384 768 l 1,16,-1
 384 640 l 1,17,-1
 256 640 l 1,18,-1
 256 384 l 1,19,-1
 128 384 l 1,12,-1
640 0 m 1,20,-1
 640 640 l 1,21,-1
 512 640 l 1,22,-1
 512 896 l 1,23,-1
 768 896 l 1,24,-1
 768 0 l 1,25,-1
 640 0 l 1,20,-1
EndSplineSet
EndChar

StartChar: N
Encoding: 78 78 35
Width: 768
GlyphClass: 1
Flags: W
LayerCount: 2
Fore
SplineSet
0 0 m 1,0,-1
 0 512 l 1,1,-1
 128 512 l 1,2,-1
 128 0 l 1,3,-1
 0 0 l 1,0,-1
256 384 m 1,4,-1
 256 512 l 1,5,-1
 128 512 l 1,6,-1
 128 896 l 1,7,-1
 256 896 l 1,8,-1
 256 640 l 1,9,-1
 384 640 l 1,10,-1
 384 384 l 1,11,-1
 256 384 l 1,4,-1
512 0 m 1,12,-1
 512 128 l 1,13,-1
 384 128 l 1,14,-1
 384 384 l 1,15,-1
 512 384 l 1,16,-1
 512 896 l 1,17,-1
 640 896 l 1,18,-1
 640 0 l 1,19,-1
 512 0 l 1,12,-1
EndSplineSet
EndChar

StartChar: O
Encoding: 79 79 36
Width: 768
GlyphClass: 1
Flags: W
LayerCount: 2
Fore
SplineSet
128 0 m 1,0,-1
 128 128 l 1,1,-1
 384 128 l 1,2,-1
 384 0 l 1,3,-1
 128 0 l 1,0,-1
384 128 m 1,4,-1
 384 256 l 1,5,-1
 512 256 l 1,6,-1
 512 128 l 1,7,-1
 384 128 l 1,4,-1
0 128 m 1,8,-1
 0 640 l 1,9,-1
 128 640 l 1,10,-1
 128 128 l 1,11,-1
 0 128 l 1,8,-1
128 640 m 1,12,-1
 128 768 l 1,13,-1
 256 768 l 1,14,-1
 256 640 l 1,15,-1
 128 640 l 1,12,-1
512 256 m 1,16,-1
 512 768 l 1,17,-1
 640 768 l 1,18,-1
 640 256 l 1,19,-1
 512 256 l 1,16,-1
256 768 m 1,20,-1
 256 896 l 1,21,-1
 512 896 l 1,22,-1
 512 768 l 1,23,-1
 256 768 l 1,20,-1
EndSplineSet
EndChar

StartChar: P
Encoding: 80 80 37
Width: 768
GlyphClass: 1
Flags: W
LayerCount: 2
Fore
SplineSet
0 0 m 1,0,-1
 0 384 l 1,1,-1
 128 384 l 1,2,-1
 128 0 l 1,3,-1
 0 0 l 1,0,-1
512 512 m 1,4,-1
 512 768 l 1,5,-1
 640 768 l 1,6,-1
 640 512 l 1,7,-1
 512 512 l 1,4,-1
128 384 m 1,8,-1
 128 896 l 1,9,-1
 512 896 l 1,10,-1
 512 768 l 1,11,-1
 256 768 l 1,12,-1
 256 512 l 1,13,-1
 512 512 l 1,14,-1
 512 384 l 1,15,-1
 128 384 l 1,8,-1
EndSplineSet
EndChar

StartChar: Q
Encoding: 81 81 38
Width: 768
GlyphClass: 1
Flags: W
LayerCount: 2
Fore
SplineSet
384 -128 m 1,0,-1
 384 0 l 1,1,-1
 128 0 l 1,2,-1
 128 128 l 1,3,-1
 256 128 l 1,4,-1
 256 256 l 1,5,-1
 512 256 l 1,6,-1
 512 0 l 1,7,-1
 640 0 l 1,8,-1
 640 -128 l 1,9,-1
 384 -128 l 1,0,-1
0 128 m 1,10,-1
 0 640 l 1,11,-1
 128 640 l 1,12,-1
 128 128 l 1,13,-1
 0 128 l 1,10,-1
128 640 m 1,14,-1
 128 768 l 1,15,-1
 256 768 l 1,16,-1
 256 640 l 1,17,-1
 128 640 l 1,14,-1
512 256 m 1,18,-1
 512 768 l 1,19,-1
 640 768 l 1,20,-1
 640 256 l 1,21,-1
 512 256 l 1,18,-1
256 768 m 1,22,-1
 256 896 l 1,23,-1
 512 896 l 1,24,-1
 512 768 l 1,25,-1
 256 768 l 1,22,-1
EndSplineSet
EndChar

StartChar: R
Encoding: 82 82 39
Width: 768
GlyphClass: 1
Flags: W
LayerCount: 2
Fore
SplineSet
0 0 m 1,0,-1
 0 384 l 1,1,-1
 128 384 l 1,2,-1
 128 0 l 1,3,-1
 0 0 l 1,0,-1
512 0 m 1,4,-1
 512 384 l 1,5,-1
 640 384 l 1,6,-1
 640 0 l 1,7,-1
 512 0 l 1,4,-1
512 512 m 1,8,-1
 512 768 l 1,9,-1
 640 768 l 1,10,-1
 640 512 l 1,11,-1
 512 512 l 1,8,-1
128 384 m 1,12,-1
 128 896 l 1,13,-1
 512 896 l 1,14,-1
 512 768 l 1,15,-1
 256 768 l 1,16,-1
 256 512 l 1,17,-1
 512 512 l 1,18,-1
 512 384 l 1,19,-1
 128 384 l 1,12,-1
EndSplineSet
EndChar

StartChar: S
Encoding: 83 83 40
Width: 768
GlyphClass: 1
Flags: W
LayerCount: 2
Fore
SplineSet
128 0 m 1,0,-1
 128 128 l 1,1,-1
 512 128 l 1,2,-1
 512 0 l 1,3,-1
 128 0 l 1,0,-1
0 128 m 1,4,-1
 0 256 l 1,5,-1
 128 256 l 1,6,-1
 128 128 l 1,7,-1
 0 128 l 1,4,-1
512 128 m 1,8,-1
 512 384 l 1,9,-1
 640 384 l 1,10,-1
 640 128 l 1,11,-1
 512 128 l 1,8,-1
256 384 m 1,12,-1
 256 512 l 1,13,-1
 512 512 l 1,14,-1
 512 384 l 1,15,-1
 256 384 l 1,12,-1
128 512 m 1,16,-1
 128 768 l 1,17,-1
 256 768 l 1,18,-1
 256 512 l 1,19,-1
 128 512 l 1,16,-1
512 640 m 1,20,-1
 512 768 l 1,21,-1
 640 768 l 1,22,-1
 640 640 l 1,23,-1
 512 640 l 1,20,-1
256 768 m 1,24,-1
 256 896 l 1,25,-1
 512 896 l 1,26,-1
 512 768 l 1,27,-1
 256 768 l 1,24,-1
EndSplineSet
EndChar

StartChar: T
Encoding: 84 84 41
Width: 768
GlyphClass: 1
Flags: W
LayerCount: 2
Fore
SplineSet
128 0 m 1,0,-1
 128 384 l 1,1,-1
 256 384 l 1,2,-1
 256 0 l 1,3,-1
 128 0 l 1,0,-1
256 384 m 1,4,-1
 256 768 l 1,5,-1
 0 768 l 1,6,-1
 0 896 l 1,7,-1
 640 896 l 1,8,-1
 640 768 l 1,9,-1
 384 768 l 1,10,-1
 384 384 l 1,11,-1
 256 384 l 1,4,-1
EndSplineSet
EndChar

StartChar: U
Encoding: 85 85 42
Width: 768
GlyphClass: 1
Flags: W
LayerCount: 2
Fore
SplineSet
128 0 m 1,0,-1
 128 128 l 1,1,-1
 384 128 l 1,2,-1
 384 0 l 1,3,-1
 128 0 l 1,0,-1
384 128 m 1,4,-1
 384 384 l 1,5,-1
 512 384 l 1,6,-1
 512 128 l 1,7,-1
 384 128 l 1,4,-1
0 128 m 1,8,-1
 0 512 l 1,9,-1
 128 512 l 1,10,-1
 128 128 l 1,11,-1
 0 128 l 1,8,-1
128 512 m 1,12,-1
 128 896 l 1,13,-1
 256 896 l 1,14,-1
 256 512 l 1,15,-1
 128 512 l 1,12,-1
512 384 m 1,16,-1
 512 896 l 1,17,-1
 640 896 l 1,18,-1
 640 384 l 1,19,-1
 512 384 l 1,16,-1
EndSplineSet
EndChar

StartChar: V
Encoding: 86 86 43
Width: 768
GlyphClass: 1
Flags: W
LayerCount: 2
Fore
SplineSet
128 0 m 1,0,-1
 128 128 l 1,1,-1
 256 128 l 1,2,-1
 256 0 l 1,3,-1
 128 0 l 1,0,-1
256 128 m 1,4,-1
 256 256 l 1,5,-1
 384 256 l 1,6,-1
 384 128 l 1,7,-1
 256 128 l 1,4,-1
384 256 m 1,8,-1
 384 512 l 1,9,-1
 512 512 l 1,10,-1
 512 256 l 1,11,-1
 384 256 l 1,8,-1
0 128 m 1,12,-1
 0 896 l 1,13,-1
 128 896 l 1,14,-1
 128 128 l 1,15,-1
 0 128 l 1,12,-1
512 512 m 1,16,-1
 512 896 l 1,17,-1
 640 896 l 1,18,-1
 640 512 l 1,19,-1
 512 512 l 1,16,-1
EndSplineSet
EndChar

StartChar: W
Encoding: 87 87 44
Width: 768
GlyphClass: 1
Flags: W
LayerCount: 2
Fore
SplineSet
384 0 m 1,0,-1
 384 256 l 1,1,-1
 256 256 l 1,2,-1
 256 768 l 1,3,-1
 384 768 l 1,4,-1
 384 384 l 1,5,-1
 512 384 l 1,6,-1
 512 0 l 1,7,-1
 384 0 l 1,0,-1
0 0 m 1,8,-1
 0 896 l 1,9,-1
 128 896 l 1,10,-1
 128 256 l 1,11,-1
 256 256 l 1,12,-1
 256 0 l 1,13,-1
 0 0 l 1,8,-1
512 384 m 1,14,-1
 512 896 l 1,15,-1
 640 896 l 1,16,-1
 640 384 l 1,17,-1
 512 384 l 1,14,-1
EndSplineSet
EndChar

StartChar: X
Encoding: 88 88 45
Width: 768
GlyphClass: 1
Flags: W
LayerCount: 2
Fore
SplineSet
0 0 m 1,0,-1
 0 256 l 1,1,-1
 128 256 l 1,2,-1
 128 0 l 1,3,-1
 0 0 l 1,0,-1
512 0 m 1,4,-1
 512 256 l 1,5,-1
 640 256 l 1,6,-1
 640 0 l 1,7,-1
 512 0 l 1,4,-1
128 256 m 1,8,-1
 128 384 l 1,9,-1
 256 384 l 1,10,-1
 256 256 l 1,11,-1
 128 256 l 1,8,-1
384 256 m 1,12,-1
 384 384 l 1,13,-1
 512 384 l 1,14,-1
 512 256 l 1,15,-1
 384 256 l 1,12,-1
256 384 m 1,16,-1
 256 512 l 1,17,-1
 384 512 l 1,18,-1
 384 384 l 1,19,-1
 256 384 l 1,16,-1
384 512 m 1,20,-1
 384 640 l 1,21,-1
 512 640 l 1,22,-1
 512 512 l 1,23,-1
 384 512 l 1,20,-1
128 512 m 1,24,-1
 128 896 l 1,25,-1
 256 896 l 1,26,-1
 256 512 l 1,27,-1
 128 512 l 1,24,-1
512 640 m 1,28,-1
 512 896 l 1,29,-1
 640 896 l 1,30,-1
 640 640 l 1,31,-1
 512 640 l 1,28,-1
EndSplineSet
EndChar

StartChar: Y
Encoding: 89 89 46
Width: 640
GlyphClass: 1
Flags: W
LayerCount: 2
Fore
SplineSet
128 0 m 1,0,-1
 128 512 l 1,1,-1
 256 512 l 1,2,-1
 256 0 l 1,3,-1
 128 0 l 1,0,-1
256 512 m 1,4,-1
 256 640 l 1,5,-1
 384 640 l 1,6,-1
 384 512 l 1,7,-1
 256 512 l 1,4,-1
0 512 m 1,8,-1
 0 896 l 1,9,-1
 128 896 l 1,10,-1
 128 512 l 1,11,-1
 0 512 l 1,8,-1
384 640 m 1,12,-1
 384 896 l 1,13,-1
 512 896 l 1,14,-1
 512 640 l 1,15,-1
 384 640 l 1,12,-1
EndSplineSet
EndChar

StartChar: Z
Encoding: 90 90 47
Width: 768
GlyphClass: 1
Flags: W
LayerCount: 2
Fore
SplineSet
0 0 m 1,0,-1
 0 384 l 1,1,-1
 128 384 l 1,2,-1
 128 128 l 1,3,-1
 512 128 l 1,4,-1
 512 0 l 1,5,-1
 0 0 l 1,0,-1
128 384 m 1,6,-1
 128 512 l 1,7,-1
 256 512 l 1,8,-1
 256 384 l 1,9,-1
 128 384 l 1,6,-1
256 512 m 1,10,-1
 256 640 l 1,11,-1
 512 640 l 1,12,-1
 512 512 l 1,13,-1
 256 512 l 1,10,-1
512 640 m 1,14,-1
 512 768 l 1,15,-1
 128 768 l 1,16,-1
 128 896 l 1,17,-1
 640 896 l 1,18,-1
 640 640 l 1,19,-1
 512 640 l 1,14,-1
EndSplineSet
EndChar

StartChar: a
Encoding: 97 97 48
Width: 768
GlyphClass: 1
Flags: W
LayerCount: 2
Fore
SplineSet
0 128 m 1,0,-1
 0 256 l 1,1,-1
 128 256 l 1,2,-1
 128 128 l 1,3,-1
 0 128 l 1,0,-1
128 0 m 1,4,-1
 128 128 l 1,5,-1
 384 128 l 1,6,-1
 384 256 l 1,7,-1
 128 256 l 1,8,-1
 128 384 l 1,9,-1
 512 384 l 1,10,-1
 512 128 l 1,11,-1
 640 128 l 1,12,-1
 640 0 l 1,13,-1
 128 0 l 1,4,-1
512 384 m 1,14,-1
 512 512 l 1,15,-1
 640 512 l 1,16,-1
 640 384 l 1,17,-1
 512 384 l 1,14,-1
256 512 m 1,18,-1
 256 640 l 1,19,-1
 512 640 l 1,20,-1
 512 512 l 1,21,-1
 256 512 l 1,18,-1
EndSplineSet
EndChar

StartChar: b
Encoding: 98 98 49
Width: 640
GlyphClass: 1
Flags: W
LayerCount: 2
Fore
SplineSet
0 0 m 1,0,-1
 0 384 l 1,1,-1
 128 384 l 1,2,-1
 128 128 l 1,3,-1
 384 128 l 1,4,-1
 384 0 l 1,5,-1
 0 0 l 1,0,-1
384 128 m 1,6,-1
 384 384 l 1,7,-1
 512 384 l 1,8,-1
 512 128 l 1,9,-1
 384 128 l 1,6,-1
128 384 m 1,10,-1
 128 768 l 1,11,-1
 256 768 l 1,12,-1
 256 512 l 1,13,-1
 384 512 l 1,14,-1
 384 384 l 1,15,-1
 128 384 l 1,10,-1
EndSplineSet
EndChar

StartChar: c
Encoding: 99 99 50
Width: 640
GlyphClass: 1
Flags: W
LayerCount: 2
Fore
SplineSet
128 0 m 1,0,-1
 128 128 l 1,1,-1
 384 128 l 1,2,-1
 384 0 l 1,3,-1
 128 0 l 1,0,-1
0 128 m 1,4,-1
 0 384 l 1,5,-1
 128 384 l 1,6,-1
 128 128 l 1,7,-1
 0 128 l 1,4,-1
128 384 m 1,8,-1
 128 512 l 1,9,-1
 256 512 l 1,10,-1
 256 384 l 1,11,-1
 128 384 l 1,8,-1
384 384 m 1,12,-1
 384 512 l 1,13,-1
 512 512 l 1,14,-1
 512 384 l 1,15,-1
 384 384 l 1,12,-1
256 512 m 1,16,-1
 256 640 l 1,17,-1
 384 640 l 1,18,-1
 384 512 l 1,19,-1
 256 512 l 1,16,-1
EndSplineSet
EndChar

StartChar: d
Encoding: 100 100 51
Width: 640
GlyphClass: 1
Flags: W
LayerCount: 2
Fore
SplineSet
0 0 m 1,0,-1
 0 384 l 1,1,-1
 128 384 l 1,2,-1
 128 128 l 1,3,-1
 256 128 l 1,4,-1
 256 384 l 1,5,-1
 128 384 l 1,6,-1
 128 512 l 1,7,-1
 384 512 l 1,8,-1
 384 128 l 1,9,-1
 512 128 l 1,10,-1
 512 0 l 1,11,-1
 0 0 l 1,0,-1
384 512 m 1,12,-1
 384 768 l 1,13,-1
 512 768 l 1,14,-1
 512 512 l 1,15,-1
 384 512 l 1,12,-1
EndSplineSet
EndChar

StartChar: e
Encoding: 101 101 52
Width: 640
GlyphClass: 1
Flags: W
LayerCount: 2
Fore
SplineSet
0 0 m 1,0,-1
 0 384 l 1,1,-1
 128 384 l 1,2,-1
 128 640 l 1,3,-1
 384 640 l 1,4,-1
 384 512 l 1,5,-1
 256 512 l 1,6,-1
 256 384 l 1,7,-1
 384 384 l 1,8,-1
 384 512 l 1,9,-1
 512 512 l 1,10,-1
 512 256 l 1,11,-1
 128 256 l 1,12,-1
 128 128 l 1,13,-1
 512 128 l 1,14,-1
 512 0 l 1,15,-1
 0 0 l 1,0,-1
EndSplineSet
EndChar

StartChar: f
Encoding: 102 102 53
Width: 768
GlyphClass: 1
Flags: W
LayerCount: 2
Fore
SplineSet
128 0 m 1,0,-1
 128 384 l 1,1,-1
 0 384 l 1,2,-1
 0 512 l 1,3,-1
 256 512 l 1,4,-1
 256 768 l 1,5,-1
 384 768 l 1,6,-1
 384 512 l 1,7,-1
 640 512 l 1,8,-1
 640 384 l 1,9,-1
 256 384 l 1,10,-1
 256 0 l 1,11,-1
 128 0 l 1,0,-1
512 640 m 1,12,-1
 512 768 l 1,13,-1
 640 768 l 1,14,-1
 640 640 l 1,15,-1
 512 640 l 1,12,-1
384 768 m 1,16,-1
 384 896 l 1,17,-1
 512 896 l 1,18,-1
 512 768 l 1,19,-1
 384 768 l 1,16,-1
EndSplineSet
EndChar

StartChar: g
Encoding: 103 103 54
Width: 896
GlyphClass: 1
Flags: W
LayerCount: 2
Fore
SplineSet
128 -128 m 1,0,-1
 128 0 l 1,1,-1
 384 0 l 1,2,-1
 384 -128 l 1,3,-1
 128 -128 l 1,0,-1
0 0 m 1,4,-1
 0 128 l 1,5,-1
 128 128 l 1,6,-1
 128 0 l 1,7,-1
 0 0 l 1,4,-1
384 0 m 1,8,-1
 384 128 l 1,9,-1
 128 128 l 1,10,-1
 128 512 l 1,11,-1
 256 512 l 1,12,-1
 256 256 l 1,13,-1
 512 256 l 1,14,-1
 512 512 l 1,15,-1
 640 512 l 1,16,-1
 640 256 l 1,17,-1
 768 256 l 1,18,-1
 768 128 l 1,19,-1
 512 128 l 1,20,-1
 512 0 l 1,21,-1
 384 0 l 1,8,-1
256 512 m 1,22,-1
 256 640 l 1,23,-1
 512 640 l 1,24,-1
 512 512 l 1,25,-1
 256 512 l 1,22,-1
EndSplineSet
EndChar

StartChar: h
Encoding: 104 104 55
Width: 640
GlyphClass: 1
Flags: W
LayerCount: 2
Fore
SplineSet
0 0 m 1,0,-1
 0 384 l 1,1,-1
 128 384 l 1,2,-1
 128 0 l 1,3,-1
 0 0 l 1,0,-1
384 0 m 1,4,-1
 384 384 l 1,5,-1
 512 384 l 1,6,-1
 512 0 l 1,7,-1
 384 0 l 1,4,-1
128 384 m 1,8,-1
 128 896 l 1,9,-1
 256 896 l 1,10,-1
 256 512 l 1,11,-1
 384 512 l 1,12,-1
 384 384 l 1,13,-1
 128 384 l 1,8,-1
EndSplineSet
EndChar

StartChar: i
Encoding: 105 105 56
Width: 384
GlyphClass: 1
Flags: W
LayerCount: 2
Fore
SplineSet
0 0 m 1,0,-1
 0 384 l 1,1,-1
 128 384 l 1,2,-1
 128 0 l 1,3,-1
 0 0 l 1,0,-1
128 384 m 1,4,-1
 128 512 l 1,5,-1
 256 512 l 1,6,-1
 256 384 l 1,7,-1
 128 384 l 1,4,-1
128 640 m 1,8,-1
 128 768 l 1,9,-1
 256 768 l 1,10,-1
 256 640 l 1,11,-1
 128 640 l 1,8,-1
EndSplineSet
EndChar

StartChar: j
Encoding: 106 106 57
Width: 768
GlyphClass: 1
Flags: W
LayerCount: 2
Fore
SplineSet
128 -128 m 1,0,-1
 128 0 l 1,1,-1
 384 0 l 1,2,-1
 384 -128 l 1,3,-1
 128 -128 l 1,0,-1
0 0 m 1,4,-1
 0 128 l 1,5,-1
 128 128 l 1,6,-1
 128 0 l 1,7,-1
 0 0 l 1,4,-1
384 0 m 1,8,-1
 384 256 l 1,9,-1
 512 256 l 1,10,-1
 512 0 l 1,11,-1
 384 0 l 1,8,-1
512 256 m 1,12,-1
 512 512 l 1,13,-1
 640 512 l 1,14,-1
 640 256 l 1,15,-1
 512 256 l 1,12,-1
512 640 m 1,16,-1
 512 768 l 1,17,-1
 640 768 l 1,18,-1
 640 640 l 1,19,-1
 512 640 l 1,16,-1
EndSplineSet
EndChar

StartChar: k
Encoding: 107 107 58
Width: 640
GlyphClass: 1
Flags: W
LayerCount: 2
Fore
SplineSet
384 0 m 1,0,-1
 384 128 l 1,1,-1
 512 128 l 1,2,-1
 512 0 l 1,3,-1
 384 0 l 1,0,-1
256 128 m 1,4,-1
 256 256 l 1,5,-1
 384 256 l 1,6,-1
 384 128 l 1,7,-1
 256 128 l 1,4,-1
384 512 m 1,8,-1
 384 640 l 1,9,-1
 512 640 l 1,10,-1
 512 512 l 1,11,-1
 384 512 l 1,8,-1
0 0 m 1,12,-1
 0 384 l 1,13,-1
 128 384 l 1,14,-1
 128 896 l 1,15,-1
 256 896 l 1,16,-1
 256 512 l 1,17,-1
 384 512 l 1,18,-1
 384 384 l 1,19,-1
 256 384 l 1,20,-1
 256 256 l 1,21,-1
 128 256 l 1,22,-1
 128 0 l 1,23,-1
 0 0 l 1,12,-1
EndSplineSet
EndChar

StartChar: l
Encoding: 108 108 59
Width: 384
GlyphClass: 1
Flags: W
LayerCount: 2
Fore
SplineSet
0 0 m 1,0,-1
 0 512 l 1,1,-1
 128 512 l 1,2,-1
 128 0 l 1,3,-1
 0 0 l 1,0,-1
128 512 m 1,4,-1
 128 896 l 1,5,-1
 256 896 l 1,6,-1
 256 512 l 1,7,-1
 128 512 l 1,4,-1
EndSplineSet
EndChar

StartChar: m
Encoding: 109 109 60
Width: 768
GlyphClass: 1
Flags: W
LayerCount: 2
Fore
SplineSet
0 0 m 1,0,-1
 0 384 l 1,1,-1
 128 384 l 1,2,-1
 128 0 l 1,3,-1
 0 0 l 1,0,-1
512 0 m 1,4,-1
 512 512 l 1,5,-1
 640 512 l 1,6,-1
 640 0 l 1,7,-1
 512 0 l 1,4,-1
256 0 m 1,8,-1
 256 384 l 1,9,-1
 128 384 l 1,10,-1
 128 640 l 1,11,-1
 256 640 l 1,12,-1
 256 512 l 1,13,-1
 384 512 l 1,14,-1
 384 0 l 1,15,-1
 256 0 l 1,8,-1
384 512 m 1,16,-1
 384 640 l 1,17,-1
 512 640 l 1,18,-1
 512 512 l 1,19,-1
 384 512 l 1,16,-1
EndSplineSet
EndChar

StartChar: n
Encoding: 110 110 61
Width: 640
GlyphClass: 1
Flags: W
LayerCount: 2
Fore
SplineSet
0 0 m 1,0,-1
 0 384 l 1,1,-1
 128 384 l 1,2,-1
 128 0 l 1,3,-1
 0 0 l 1,0,-1
384 0 m 1,4,-1
 384 512 l 1,5,-1
 512 512 l 1,6,-1
 512 0 l 1,7,-1
 384 0 l 1,4,-1
128 384 m 1,8,-1
 128 640 l 1,9,-1
 384 640 l 1,10,-1
 384 512 l 1,11,-1
 256 512 l 1,12,-1
 256 384 l 1,13,-1
 128 384 l 1,8,-1
EndSplineSet
EndChar

StartChar: o
Encoding: 111 111 62
Width: 640
GlyphClass: 1
Flags: W
LayerCount: 2
Fore
SplineSet
128 0 m 1,0,-1
 128 128 l 1,1,-1
 384 128 l 1,2,-1
 384 0 l 1,3,-1
 128 0 l 1,0,-1
0 128 m 1,4,-1
 0 384 l 1,5,-1
 128 384 l 1,6,-1
 128 128 l 1,7,-1
 0 128 l 1,4,-1
128 384 m 1,8,-1
 128 512 l 1,9,-1
 256 512 l 1,10,-1
 256 384 l 1,11,-1
 128 384 l 1,8,-1
384 128 m 1,12,-1
 384 512 l 1,13,-1
 512 512 l 1,14,-1
 512 128 l 1,15,-1
 384 128 l 1,12,-1
256 512 m 1,16,-1
 256 640 l 1,17,-1
 384 640 l 1,18,-1
 384 512 l 1,19,-1
 256 512 l 1,16,-1
EndSplineSet
EndChar

StartChar: p
Encoding: 112 112 63
Width: 640
GlyphClass: 1
Flags: W
LayerCount: 2
Fore
SplineSet
0 -128 m 1,0,-1
 0 256 l 1,1,-1
 128 256 l 1,2,-1
 128 128 l 1,3,-1
 384 128 l 1,4,-1
 384 0 l 1,5,-1
 128 0 l 1,6,-1
 128 -128 l 1,7,-1
 0 -128 l 1,0,-1
384 128 m 1,8,-1
 384 512 l 1,9,-1
 512 512 l 1,10,-1
 512 128 l 1,11,-1
 384 128 l 1,8,-1
128 256 m 1,12,-1
 128 640 l 1,13,-1
 384 640 l 1,14,-1
 384 512 l 1,15,-1
 256 512 l 1,16,-1
 256 256 l 1,17,-1
 128 256 l 1,12,-1
EndSplineSet
EndChar

StartChar: q
Encoding: 113 113 64
Width: 640
GlyphClass: 1
Flags: W
LayerCount: 2
Fore
SplineSet
256 -128 m 1,0,-1
 256 128 l 1,1,-1
 0 128 l 1,2,-1
 0 384 l 1,3,-1
 128 384 l 1,4,-1
 128 256 l 1,5,-1
 384 256 l 1,6,-1
 384 0 l 1,7,-1
 512 0 l 1,8,-1
 512 -128 l 1,9,-1
 256 -128 l 1,0,-1
384 256 m 1,10,-1
 384 384 l 1,11,-1
 128 384 l 1,12,-1
 128 512 l 1,13,-1
 512 512 l 1,14,-1
 512 256 l 1,15,-1
 384 256 l 1,10,-1
EndSplineSet
EndChar

StartChar: r
Encoding: 114 114 65
Width: 640
GlyphClass: 1
Flags: W
LayerCount: 2
Fore
SplineSet
0 0 m 1,0,-1
 0 384 l 1,1,-1
 128 384 l 1,2,-1
 128 0 l 1,3,-1
 0 0 l 1,0,-1
128 384 m 1,4,-1
 128 640 l 1,5,-1
 256 640 l 1,6,-1
 256 512 l 1,7,-1
 512 512 l 1,8,-1
 512 384 l 1,9,-1
 128 384 l 1,4,-1
EndSplineSet
EndChar

StartChar: s
Encoding: 115 115 66
Width: 640
GlyphClass: 1
Flags: W
LayerCount: 2
Fore
SplineSet
0 0 m 1,0,-1
 0 128 l 1,1,-1
 384 128 l 1,2,-1
 384 0 l 1,3,-1
 0 0 l 1,0,-1
384 128 m 1,4,-1
 384 256 l 1,5,-1
 512 256 l 1,6,-1
 512 128 l 1,7,-1
 384 128 l 1,4,-1
128 256 m 1,8,-1
 128 512 l 1,9,-1
 256 512 l 1,10,-1
 256 384 l 1,11,-1
 384 384 l 1,12,-1
 384 256 l 1,13,-1
 128 256 l 1,8,-1
256 512 m 1,14,-1
 256 640 l 1,15,-1
 512 640 l 1,16,-1
 512 512 l 1,17,-1
 256 512 l 1,14,-1
EndSplineSet
EndChar

StartChar: t
Encoding: 116 116 67
Width: 640
GlyphClass: 1
Flags: W
LayerCount: 2
Fore
SplineSet
128 0 m 1,0,-1
 128 384 l 1,1,-1
 0 384 l 1,2,-1
 0 512 l 1,3,-1
 256 512 l 1,4,-1
 256 768 l 1,5,-1
 384 768 l 1,6,-1
 384 512 l 1,7,-1
 512 512 l 1,8,-1
 512 384 l 1,9,-1
 256 384 l 1,10,-1
 256 128 l 1,11,-1
 512 128 l 1,12,-1
 512 0 l 1,13,-1
 128 0 l 1,0,-1
EndSplineSet
EndChar

StartChar: u
Encoding: 117 117 68
Width: 640
GlyphClass: 1
Flags: W
LayerCount: 2
Fore
SplineSet
128 0 m 1,0,-1
 128 128 l 1,1,-1
 384 128 l 1,2,-1
 384 0 l 1,3,-1
 128 0 l 1,0,-1
0 128 m 1,4,-1
 0 640 l 1,5,-1
 128 640 l 1,6,-1
 128 128 l 1,7,-1
 0 128 l 1,4,-1
384 128 m 1,8,-1
 384 640 l 1,9,-1
 512 640 l 1,10,-1
 512 128 l 1,11,-1
 384 128 l 1,8,-1
EndSplineSet
EndChar

StartChar: v
Encoding: 118 118 69
Width: 640
GlyphClass: 1
Flags: W
LayerCount: 2
Fore
SplineSet
256 128 m 1,0,-1
 256 384 l 1,1,-1
 384 384 l 1,2,-1
 384 128 l 1,3,-1
 256 128 l 1,0,-1
0 0 m 1,4,-1
 0 640 l 1,5,-1
 128 640 l 1,6,-1
 128 128 l 1,7,-1
 256 128 l 1,8,-1
 256 0 l 1,9,-1
 0 0 l 1,4,-1
384 384 m 1,10,-1
 384 640 l 1,11,-1
 512 640 l 1,12,-1
 512 384 l 1,13,-1
 384 384 l 1,10,-1
EndSplineSet
EndChar

StartChar: w
Encoding: 119 119 70
Width: 768
GlyphClass: 1
Flags: W
LayerCount: 2
Fore
SplineSet
0 0 m 1,0,-1
 0 640 l 1,1,-1
 128 640 l 1,2,-1
 128 256 l 1,3,-1
 256 256 l 1,4,-1
 256 640 l 1,5,-1
 384 640 l 1,6,-1
 384 384 l 1,7,-1
 512 384 l 1,8,-1
 512 640 l 1,9,-1
 640 640 l 1,10,-1
 640 256 l 1,11,-1
 512 256 l 1,12,-1
 512 0 l 1,13,-1
 384 0 l 1,14,-1
 384 128 l 1,15,-1
 256 128 l 1,16,-1
 256 0 l 1,17,-1
 0 0 l 1,0,-1
EndSplineSet
EndChar

StartChar: x
Encoding: 120 120 71
Width: 640
GlyphClass: 1
Flags: W
LayerCount: 2
Fore
SplineSet
0 0 m 1,0,-1
 0 256 l 1,1,-1
 128 256 l 1,2,-1
 128 0 l 1,3,-1
 0 0 l 1,0,-1
384 0 m 1,4,-1
 384 256 l 1,5,-1
 512 256 l 1,6,-1
 512 0 l 1,7,-1
 384 0 l 1,4,-1
128 256 m 1,8,-1
 128 640 l 1,9,-1
 256 640 l 1,10,-1
 256 384 l 1,11,-1
 384 384 l 1,12,-1
 384 256 l 1,13,-1
 128 256 l 1,8,-1
384 384 m 1,14,-1
 384 640 l 1,15,-1
 512 640 l 1,16,-1
 512 384 l 1,17,-1
 384 384 l 1,14,-1
EndSplineSet
EndChar

StartChar: y
Encoding: 121 121 72
Width: 768
GlyphClass: 1
Flags: W
LayerCount: 2
Fore
SplineSet
128 -128 m 1,0,-1
 128 0 l 1,1,-1
 384 0 l 1,2,-1
 384 -128 l 1,3,-1
 128 -128 l 1,0,-1
0 0 m 1,4,-1
 0 128 l 1,5,-1
 128 128 l 1,6,-1
 128 0 l 1,7,-1
 0 0 l 1,4,-1
128 256 m 1,8,-1
 128 512 l 1,9,-1
 256 512 l 1,10,-1
 256 256 l 1,11,-1
 128 256 l 1,8,-1
384 0 m 1,12,-1
 384 128 l 1,13,-1
 256 128 l 1,14,-1
 256 256 l 1,15,-1
 512 256 l 1,16,-1
 512 640 l 1,17,-1
 640 640 l 1,18,-1
 640 128 l 1,19,-1
 512 128 l 1,20,-1
 512 0 l 1,21,-1
 384 0 l 1,12,-1
EndSplineSet
EndChar

StartChar: z
Encoding: 122 122 73
Width: 640
GlyphClass: 1
Flags: W
LayerCount: 2
Fore
SplineSet
0 0 m 1,0,-1
 0 256 l 1,1,-1
 128 256 l 1,2,-1
 128 128 l 1,3,-1
 512 128 l 1,4,-1
 512 0 l 1,5,-1
 0 0 l 1,0,-1
128 256 m 1,6,-1
 128 384 l 1,7,-1
 384 384 l 1,8,-1
 384 256 l 1,9,-1
 128 256 l 1,6,-1
384 384 m 1,10,-1
 384 512 l 1,11,-1
 128 512 l 1,12,-1
 128 640 l 1,13,-1
 512 640 l 1,14,-1
 512 384 l 1,15,-1
 384 384 l 1,10,-1
EndSplineSet
EndChar

StartChar: germandbls
Encoding: 223 223 74
Width: 768
GlyphClass: 1
Flags: W
LayerCount: 2
Fore
SplineSet
256 0 m 1,0,-1
 256 128 l 1,1,-1
 512 128 l 1,2,-1
 512 0 l 1,3,-1
 256 0 l 1,0,-1
0 0 m 1,4,-1
 0 384 l 1,5,-1
 128 384 l 1,6,-1
 128 0 l 1,7,-1
 0 0 l 1,4,-1
512 128 m 1,8,-1
 512 384 l 1,9,-1
 640 384 l 1,10,-1
 640 128 l 1,11,-1
 512 128 l 1,8,-1
384 384 m 1,12,-1
 384 512 l 1,13,-1
 512 512 l 1,14,-1
 512 384 l 1,15,-1
 384 384 l 1,12,-1
128 384 m 1,16,-1
 128 768 l 1,17,-1
 256 768 l 1,18,-1
 256 384 l 1,19,-1
 128 384 l 1,16,-1
512 512 m 1,20,-1
 512 768 l 1,21,-1
 640 768 l 1,22,-1
 640 512 l 1,23,-1
 512 512 l 1,20,-1
256 768 m 1,24,-1
 256 896 l 1,25,-1
 512 896 l 1,26,-1
 512 768 l 1,27,-1
 256 768 l 1,24,-1
EndSplineSet
EndChar

StartChar: agrave
Encoding: 224 224 75
Width: 768
GlyphClass: 1
Flags: W
LayerCount: 2
Fore
SplineSet
128 0 m 1,0,-1
 128 128 l 1,1,-1
 384 128 l 1,2,-1
 384 0 l 1,3,-1
 128 0 l 1,0,-1
512 0 m 1,4,-1
 512 128 l 1,5,-1
 640 128 l 1,6,-1
 640 0 l 1,7,-1
 512 0 l 1,4,-1
0 128 m 1,8,-1
 0 256 l 1,9,-1
 128 256 l 1,10,-1
 128 128 l 1,11,-1
 0 128 l 1,8,-1
128 256 m 1,12,-1
 128 384 l 1,13,-1
 256 384 l 1,14,-1
 256 256 l 1,15,-1
 128 256 l 1,12,-1
384 128 m 1,16,-1
 384 384 l 1,17,-1
 256 384 l 1,18,-1
 256 512 l 1,19,-1
 512 512 l 1,20,-1
 512 128 l 1,21,-1
 384 128 l 1,16,-1
384 640 m 1,22,-1
 384 768 l 1,23,-1
 512 768 l 1,24,-1
 512 640 l 1,25,-1
 384 640 l 1,22,-1
256 768 m 1,26,-1
 256 896 l 1,27,-1
 384 896 l 1,28,-1
 384 768 l 1,29,-1
 256 768 l 1,26,-1
EndSplineSet
EndChar

StartChar: acircumflex
Encoding: 226 226 76
Width: 768
GlyphClass: 1
Flags: W
LayerCount: 2
Fore
SplineSet
128 0 m 1,0,-1
 128 128 l 1,1,-1
 384 128 l 1,2,-1
 384 0 l 1,3,-1
 128 0 l 1,0,-1
512 0 m 1,4,-1
 512 128 l 1,5,-1
 640 128 l 1,6,-1
 640 0 l 1,7,-1
 512 0 l 1,4,-1
0 128 m 1,8,-1
 0 256 l 1,9,-1
 128 256 l 1,10,-1
 128 128 l 1,11,-1
 0 128 l 1,8,-1
128 256 m 1,12,-1
 128 384 l 1,13,-1
 256 384 l 1,14,-1
 256 256 l 1,15,-1
 128 256 l 1,12,-1
384 128 m 1,16,-1
 384 384 l 1,17,-1
 256 384 l 1,18,-1
 256 512 l 1,19,-1
 512 512 l 1,20,-1
 512 128 l 1,21,-1
 384 128 l 1,16,-1
128 640 m 1,22,-1
 128 768 l 1,23,-1
 256 768 l 1,24,-1
 256 640 l 1,25,-1
 128 640 l 1,22,-1
384 640 m 1,26,-1
 384 768 l 1,27,-1
 512 768 l 1,28,-1
 512 640 l 1,29,-1
 384 640 l 1,26,-1
256 768 m 1,30,-1
 256 896 l 1,31,-1
 384 896 l 1,32,-1
 384 768 l 1,33,-1
 256 768 l 1,30,-1
EndSplineSet
EndChar

StartChar: adieresis
Encoding: 228 228 77
Width: 768
GlyphClass: 1
Flags: W
LayerCount: 2
Fore
SplineSet
0 128 m 1,0,-1
 0 256 l 1,1,-1
 128 256 l 1,2,-1
 128 128 l 1,3,-1
 0 128 l 1,0,-1
128 0 m 1,4,-1
 128 128 l 1,5,-1
 384 128 l 1,6,-1
 384 256 l 1,7,-1
 128 256 l 1,8,-1
 128 384 l 1,9,-1
 512 384 l 1,10,-1
 512 128 l 1,11,-1
 640 128 l 1,12,-1
 640 0 l 1,13,-1
 128 0 l 1,4,-1
512 384 m 1,14,-1
 512 512 l 1,15,-1
 640 512 l 1,16,-1
 640 384 l 1,17,-1
 512 384 l 1,14,-1
256 512 m 1,18,-1
 256 640 l 1,19,-1
 512 640 l 1,20,-1
 512 512 l 1,21,-1
 256 512 l 1,18,-1
256 768 m 1,22,-1
 256 896 l 1,23,-1
 384 896 l 1,24,-1
 384 768 l 1,25,-1
 256 768 l 1,22,-1
512 768 m 1,26,-1
 512 896 l 1,27,-1
 640 896 l 1,28,-1
 640 768 l 1,29,-1
 512 768 l 1,26,-1
EndSplineSet
EndChar

StartChar: egrave
Encoding: 232 232 78
Width: 640
GlyphClass: 1
Flags: W
LayerCount: 2
Fore
SplineSet
0 0 m 1,0,-1
 0 384 l 1,1,-1
 128 384 l 1,2,-1
 128 640 l 1,3,-1
 384 640 l 1,4,-1
 384 512 l 1,5,-1
 256 512 l 1,6,-1
 256 384 l 1,7,-1
 384 384 l 1,8,-1
 384 512 l 1,9,-1
 512 512 l 1,10,-1
 512 256 l 1,11,-1
 128 256 l 1,12,-1
 128 128 l 1,13,-1
 512 128 l 1,14,-1
 512 0 l 1,15,-1
 0 0 l 1,0,-1
384 640 m 1,16,-1
 384 768 l 1,17,-1
 512 768 l 1,18,-1
 512 640 l 1,19,-1
 384 640 l 1,16,-1
256 768 m 1,20,-1
 256 896 l 1,21,-1
 384 896 l 1,22,-1
 384 768 l 1,23,-1
 256 768 l 1,20,-1
EndSplineSet
EndChar

StartChar: eacute
Encoding: 233 233 79
Width: 640
GlyphClass: 1
Flags: W
LayerCount: 2
Fore
SplineSet
0 0 m 1,0,-1
 0 384 l 1,1,-1
 128 384 l 1,2,-1
 128 512 l 1,3,-1
 256 512 l 1,4,-1
 256 384 l 1,5,-1
 384 384 l 1,6,-1
 384 512 l 1,7,-1
 512 512 l 1,8,-1
 512 256 l 1,9,-1
 128 256 l 1,10,-1
 128 128 l 1,11,-1
 512 128 l 1,12,-1
 512 0 l 1,13,-1
 0 0 l 1,0,-1
256 512 m 1,14,-1
 256 640 l 1,15,-1
 384 640 l 1,16,-1
 384 512 l 1,17,-1
 256 512 l 1,14,-1
128 640 m 1,18,-1
 128 768 l 1,19,-1
 256 768 l 1,20,-1
 256 640 l 1,21,-1
 128 640 l 1,18,-1
256 768 m 1,22,-1
 256 896 l 1,23,-1
 384 896 l 1,24,-1
 384 768 l 1,25,-1
 256 768 l 1,22,-1
EndSplineSet
EndChar

StartChar: ecircumflex
Encoding: 234 234 80
Width: 768
GlyphClass: 1
Flags: W
LayerCount: 2
Fore
SplineSet
0 0 m 1,0,-1
 0 384 l 1,1,-1
 128 384 l 1,2,-1
 128 512 l 1,3,-1
 256 512 l 1,4,-1
 256 384 l 1,5,-1
 384 384 l 1,6,-1
 384 512 l 1,7,-1
 512 512 l 1,8,-1
 512 256 l 1,9,-1
 128 256 l 1,10,-1
 128 128 l 1,11,-1
 512 128 l 1,12,-1
 512 0 l 1,13,-1
 0 0 l 1,0,-1
256 512 m 1,14,-1
 256 640 l 1,15,-1
 384 640 l 1,16,-1
 384 512 l 1,17,-1
 256 512 l 1,14,-1
128 640 m 1,18,-1
 128 768 l 1,19,-1
 256 768 l 1,20,-1
 256 640 l 1,21,-1
 128 640 l 1,18,-1
512 640 m 1,22,-1
 512 768 l 1,23,-1
 640 768 l 1,24,-1
 640 640 l 1,25,-1
 512 640 l 1,22,-1
256 768 m 1,26,-1
 256 896 l 1,27,-1
 512 896 l 1,28,-1
 512 768 l 1,29,-1
 256 768 l 1,26,-1
EndSplineSet
EndChar

StartChar: ocircumflex
Encoding: 244 244 81
Width: 640
GlyphClass: 1
Flags: W
LayerCount: 2
Fore
SplineSet
128 0 m 1,0,-1
 128 128 l 1,1,-1
 384 128 l 1,2,-1
 384 0 l 1,3,-1
 128 0 l 1,0,-1
0 128 m 1,4,-1
 0 384 l 1,5,-1
 128 384 l 1,6,-1
 128 128 l 1,7,-1
 0 128 l 1,4,-1
384 128 m 1,8,-1
 384 384 l 1,9,-1
 512 384 l 1,10,-1
 512 128 l 1,11,-1
 384 128 l 1,8,-1
128 384 m 1,12,-1
 128 512 l 1,13,-1
 384 512 l 1,14,-1
 384 384 l 1,15,-1
 128 384 l 1,12,-1
0 640 m 1,16,-1
 0 768 l 1,17,-1
 128 768 l 1,18,-1
 128 640 l 1,19,-1
 0 640 l 1,16,-1
384 640 m 1,20,-1
 384 768 l 1,21,-1
 512 768 l 1,22,-1
 512 640 l 1,23,-1
 384 640 l 1,20,-1
128 768 m 1,24,-1
 128 896 l 1,25,-1
 384 896 l 1,26,-1
 384 768 l 1,27,-1
 128 768 l 1,24,-1
EndSplineSet
EndChar

StartChar: odieresis
Encoding: 246 246 82
Width: 640
GlyphClass: 1
Flags: W
LayerCount: 2
Fore
SplineSet
128 0 m 1,0,-1
 128 128 l 1,1,-1
 384 128 l 1,2,-1
 384 0 l 1,3,-1
 128 0 l 1,0,-1
0 128 m 1,4,-1
 0 384 l 1,5,-1
 128 384 l 1,6,-1
 128 128 l 1,7,-1
 0 128 l 1,4,-1
128 384 m 1,8,-1
 128 512 l 1,9,-1
 256 512 l 1,10,-1
 256 384 l 1,11,-1
 128 384 l 1,8,-1
384 128 m 1,12,-1
 384 512 l 1,13,-1
 512 512 l 1,14,-1
 512 128 l 1,15,-1
 384 128 l 1,12,-1
256 512 m 1,16,-1
 256 640 l 1,17,-1
 384 640 l 1,18,-1
 384 512 l 1,19,-1
 256 512 l 1,16,-1
128 768 m 1,20,-1
 128 896 l 1,21,-1
 256 896 l 1,22,-1
 256 768 l 1,23,-1
 128 768 l 1,20,-1
384 768 m 1,24,-1
 384 896 l 1,25,-1
 512 896 l 1,26,-1
 512 768 l 1,27,-1
 384 768 l 1,24,-1
EndSplineSet
EndChar

StartChar: udieresis
Encoding: 252 252 83
Width: 640
GlyphClass: 1
Flags: W
LayerCount: 2
Fore
SplineSet
128 0 m 1,0,-1
 128 128 l 1,1,-1
 256 128 l 1,2,-1
 256 256 l 1,3,-1
 384 256 l 1,4,-1
 384 0 l 1,5,-1
 128 0 l 1,0,-1
0 128 m 1,6,-1
 0 640 l 1,7,-1
 128 640 l 1,8,-1
 128 128 l 1,9,-1
 0 128 l 1,6,-1
384 256 m 1,10,-1
 384 640 l 1,11,-1
 512 640 l 1,12,-1
 512 256 l 1,13,-1
 384 256 l 1,10,-1
128 768 m 1,14,-1
 128 896 l 1,15,-1
 256 896 l 1,16,-1
 256 768 l 1,17,-1
 128 768 l 1,14,-1
384 768 m 1,18,-1
 384 896 l 1,19,-1
 512 896 l 1,20,-1
 512 768 l 1,21,-1
 384 768 l 1,18,-1
EndSplineSet
EndChar

StartChar: quoteleft
Encoding: 8216 8216 84
Width: 384
GlyphClass: 1
Flags: W
LayerCount: 2
Fore
SplineSet
0 512 m 1,0,-1
 0 640 l 1,1,-1
 128 640 l 1,2,-1
 128 512 l 1,3,-1
 0 512 l 1,0,-1
128 640 m 1,4,-1
 128 768 l 1,5,-1
 0 768 l 1,6,-1
 0 896 l 1,7,-1
 256 896 l 1,8,-1
 256 640 l 1,9,-1
 128 640 l 1,4,-1
EndSplineSet
EndChar

StartChar: quoteright
Encoding: 8217 8217 85
Width: 384
GlyphClass: 1
Flags: W
LayerCount: 2
Fore
SplineSet
0 512 m 1,0,-1
 0 640 l 1,1,-1
 128 640 l 1,2,-1
 128 512 l 1,3,-1
 0 512 l 1,0,-1
128 640 m 1,4,-1
 128 768 l 1,5,-1
 0 768 l 1,6,-1
 0 896 l 1,7,-1
 256 896 l 1,8,-1
 256 640 l 1,9,-1
 128 640 l 1,4,-1
EndSplineSet
EndChar

StartChar: quotedblleft
Encoding: 8220 8220 86
Width: 768
GlyphClass: 1
Flags: W
LayerCount: 2
Fore
SplineSet
0 512 m 1,0,-1
 0 640 l 1,1,-1
 128 640 l 1,2,-1
 128 512 l 1,3,-1
 0 512 l 1,0,-1
384 512 m 1,4,-1
 384 640 l 1,5,-1
 512 640 l 1,6,-1
 512 512 l 1,7,-1
 384 512 l 1,4,-1
128 640 m 1,8,-1
 128 768 l 1,9,-1
 0 768 l 1,10,-1
 0 896 l 1,11,-1
 256 896 l 1,12,-1
 256 640 l 1,13,-1
 128 640 l 1,8,-1
512 640 m 1,14,-1
 512 768 l 1,15,-1
 384 768 l 1,16,-1
 384 896 l 1,17,-1
 640 896 l 1,18,-1
 640 640 l 1,19,-1
 512 640 l 1,14,-1
EndSplineSet
EndChar

StartChar: quotedblright
Encoding: 8221 8221 87
Width: 768
GlyphClass: 1
Flags: W
LayerCount: 2
Fore
SplineSet
0 512 m 1,0,-1
 0 640 l 1,1,-1
 128 640 l 1,2,-1
 128 512 l 1,3,-1
 0 512 l 1,0,-1
384 512 m 1,4,-1
 384 640 l 1,5,-1
 512 640 l 1,6,-1
 512 512 l 1,7,-1
 384 512 l 1,4,-1
128 640 m 1,8,-1
 128 768 l 1,9,-1
 0 768 l 1,10,-1
 0 896 l 1,11,-1
 256 896 l 1,12,-1
 256 640 l 1,13,-1
 128 640 l 1,8,-1
512 640 m 1,14,-1
 512 768 l 1,15,-1
 384 768 l 1,16,-1
 384 896 l 1,17,-1
 640 896 l 1,18,-1
 640 640 l 1,19,-1
 512 640 l 1,14,-1
EndSplineSet
EndChar

StartChar: ellipsis
Encoding: 8230 8230 88
Width: 1664
GlyphClass: 1
Flags: W
LayerCount: 2
Fore
SplineSet
0 256 m 1,0,-1
 0 512 l 1,1,-1
 256 512 l 1,2,-1
 256 256 l 1,3,-1
 0 256 l 1,0,-1
640 256 m 1,4,-1
 640 512 l 1,5,-1
 896 512 l 1,6,-1
 896 256 l 1,7,-1
 640 256 l 1,4,-1
1280 256 m 1,8,-1
 1280 512 l 1,9,-1
 1536 512 l 1,10,-1
 1536 256 l 1,11,-1
 1280 256 l 1,8,-1
EndSplineSet
EndChar

StartChar: colon
Encoding: 58 58 89
Width: 384
Flags: WO
LayerCount: 2
Fore
SplineSet
0 512 m 1,0,-1
 0 768 l 1,1,-1
 256 768 l 1,2,-1
 256 512 l 1,3,-1
 0 512 l 1,0,-1
0 0 m 1,4,-1
 0 256 l 1,5,-1
 256 256 l 1,6,-1
 256 0 l 1,7,-1
 0 0 l 1,4,-1
EndSplineSet
EndChar
